ply
format ascii 1.0
comment Created in Blender version 3.6.2
element vertex 282
property float x
property float y
property float z
element face 150
property list uchar uint vertex_indices
end_header
-0.066474944 0.021463908 0.08265287
-0.06886466 0.014264093 0.07065851
-0.057617143 0.010785595 0.06986054
-0.05397739 0.017598856 0.08176613
-0.070384815 0.0093933465 0.05741557
-0.07097688 0.007038875 0.04343284
-0.06346156 0.0047146543 0.04289961
-0.06081956 0.006435178 0.056736954
-0.02831915 0.12664555 0.08548847
-0.031993836 0.11703645 0.09526462
-0.026817169 0.11543555 0.09489736
-0.025680095 0.1258294 0.085301206
-0.07061821 0.007291245 0.029247694
-0.06932262 0.010140589 0.015405233
-0.06668355 0.009324398 0.015218013
-0.06544158 0.0056902617 0.02888042
-0.036215853 0.10580702 0.1028465
-0.040822916 0.09338872 0.10794276
-0.031257704 0.09043051 0.1072641
-0.028700467 0.10348274 0.10231329
-0.04563807 0.08025883 0.11035748
-0.050476238 0.06692183 0.10999794
-0.03797859 0.0630568 0.109111235
-0.034390517 0.07678032 0.109559484
-0.055151414 0.053890377 0.1068779
-0.059484005 0.04166524 0.10111733
-0.045956705 0.037481695 0.10015753
-0.04188403 0.049787253 0.10593659
-0.06330747 0.030716104 0.0929375
-0.066474944 0.021463908 0.08265287
-0.05397739 0.017598856 0.08176613
-0.050040085 0.026612982 0.09199618
-0.06886466 0.014264093 0.07065851
-0.070384815 0.0093933465 0.05741557
-0.06081956 0.006435178 0.056736954
-0.057617143 0.010785595 0.06986054
-0.07097688 0.007038875 0.04343284
-0.07061821 0.007291245 0.029247694
-0.06544158 0.0056902617 0.02888042
-0.06346156 0.0047146543 0.04289961
-0.031993836 0.11703645 0.09526462
-0.036215853 0.10580702 0.1028465
-0.028700467 0.10348274 0.10231329
-0.026817169 0.11543555 0.09489736
-0.040822916 0.09338872 0.10794276
-0.04563807 0.08025883 0.11035748
-0.034390517 0.07678032 0.109559484
-0.031257704 0.09043051 0.1072641
-0.050476238 0.06692183 0.10999794
-0.055151414 0.053890377 0.1068779
-0.04188403 0.049787253 0.10593659
-0.03797859 0.0630568 0.109111235
-0.059484005 0.04166524 0.10111733
-0.06330747 0.030716104 0.0929375
-0.050040085 0.026612982 0.09199618
-0.045956705 0.037481695 0.10015753
-0.05397739 0.017598856 0.08176613
-0.057617143 0.010785595 0.06986054
-0.04637851 0.00850182 0.067081645
-0.04148971 0.015061192 0.07867843
-0.06081956 0.006435178 0.056736954
-0.06346156 0.0047146543 0.04289961
-0.05595218 0.0031886902 0.041042853
-0.05126191 0.0044929516 0.05437372
-0.025680095 0.1258294 0.085301206
-0.026817169 0.11543555 0.09489736
-0.0216446 0.11438444 0.093618385
-0.023043167 0.12529352 0.08464922
-0.06544158 0.0056902617 0.02888042
-0.06668355 0.009324398 0.015218013
-0.06404662 0.008788569 0.014565981
-0.060268994 0.0046391515 0.027601441
-0.028700467 0.10348274 0.10231329
-0.031257704 0.09043051 0.1072641
-0.021700028 0.088488325 0.10490091
-0.021191087 0.10195683 0.100456506
-0.034390517 0.07678032 0.109559484
-0.03797859 0.0630568 0.109111235
-0.025490977 0.06051915 0.10602355
-0.023151938 0.07449656 0.1067806
-0.04188403 0.049787253 0.10593659
-0.045956705 0.037481695 0.10015753
-0.03244012 0.034735 0.09681544
-0.028627194 0.04709339 0.102658674
-0.050040085 0.026612982 0.09199618
-0.05397739 0.017598856 0.08176613
-0.04148971 0.015061192 0.07867843
-0.036783252 0.02391912 0.08871827
-0.057617143 0.010785595 0.06986054
-0.06081956 0.006435178 0.056736954
-0.05126191 0.0044929516 0.05437372
-0.04637851 0.00850182 0.067081645
-0.06346156 0.0047146543 0.04289961
-0.06544158 0.0056902617 0.02888042
-0.060268994 0.0046391515 0.027601441
-0.05595218 0.0031886902 0.041042853
-0.026817169 0.11543555 0.09489736
-0.028700467 0.10348274 0.10231329
-0.021191087 0.10195683 0.100456506
-0.0216446 0.11438444 0.093618385
-0.031257704 0.09043051 0.1072641
-0.034390517 0.07678032 0.109559484
-0.023151938 0.07449656 0.1067806
-0.021700028 0.088488325 0.10490091
-0.03797859 0.0630568 0.109111235
-0.04188403 0.049787253 0.10593659
-0.028627194 0.04709339 0.102658674
-0.025490977 0.06051915 0.10602355
-0.045956705 0.037481695 0.10015753
-0.050040085 0.026612982 0.09199618
-0.036783252 0.02391912 0.08871827
-0.03244012 0.034735 0.09681544
-0.04148971 0.015061192 0.07867843
-0.04637851 0.00850182 0.067081645
-0.035580758 0.0075005284 0.062428817
-0.029491834 0.013948658 0.07350843
-0.05126191 0.0044929516 0.05437372
-0.05595218 0.0031886902 0.041042853
-0.048737314 0.0025196276 0.037933953
-0.042079166 0.0036414312 0.05041676
-0.023043167 0.12529352 0.08464922
-0.0216446 0.11438444 0.093618385
-0.016674917 0.11392357 0.09147691
-0.020509649 0.12505862 0.08355747
-0.060268994 0.0046391515 0.027601441
-0.06404662 0.008788569 0.014565981
-0.06151308 0.008553635 0.013474315
-0.05529933 0.0041782907 0.02545997
-0.021191087 0.10195683 0.100456506
-0.021700028 0.088488325 0.10490091
-0.012517281 0.087636806 0.10094395
-0.013976224 0.10128777 0.0973476
-0.023151938 0.07449656 0.1067806
-0.025490977 0.06051915 0.10602355
-0.013493102 0.059406616 0.10085355
-0.012354214 0.07349528 0.1021277
-0.028627194 0.04709339 0.102658674
-0.03244012 0.034735 0.09681544
-0.019453757 0.033530768 0.09121946
-0.01589036 0.045912255 0.09717025
-0.036783252 0.02391912 0.08871827
-0.04148971 0.015061192 0.07867843
-0.029491834 0.013948658 0.07350843
-0.024046415 0.022737984 0.08322984
-0.04637851 0.00850182 0.067081645
-0.05126191 0.0044929516 0.05437372
-0.042079166 0.0036414312 0.05041676
-0.035580758 0.0075005284 0.062428817
-0.05595218 0.0031886902 0.041042853
-0.060268994 0.0046391515 0.027601441
-0.05529933 0.0041782907 0.02545997
-0.048737314 0.0025196276 0.037933953
-0.0216446 0.11438444 0.093618385
-0.021191087 0.10195683 0.100456506
-0.013976224 0.10128777 0.0973476
-0.016674917 0.11392357 0.09147691
-0.021700028 0.088488325 0.10490091
-0.023151938 0.07449656 0.1067806
-0.012354214 0.07349528 0.1021277
-0.012517281 0.087636806 0.10094395
-0.025490977 0.06051915 0.10602355
-0.028627194 0.04709339 0.102658674
-0.01589036 0.045912255 0.09717025
-0.013493102 0.059406616 0.10085355
-0.03244012 0.034735 0.09681544
-0.036783252 0.02391912 0.08871827
-0.024046415 0.022737984 0.08322984
-0.019453757 0.033530768 0.09121946
-0.029491834 0.013948658 0.07350843
-0.035580758 0.0075005284 0.062428817
-0.025638733 0.007820194 0.056080684
-0.018444907 0.014303808 0.06645476
-0.042079166 0.0036414312 0.05041676
-0.048737314 0.0025196276 0.037933953
-0.04209428 0.0027332082 0.033692274
-0.033624195 0.0039132675 0.045018114
-0.020509649 0.12505862 0.08355747
-0.016674917 0.11392357 0.09147691
-0.012099158 0.114070676 0.08855519
-0.018176902 0.12513357 0.082068026
-0.05529933 0.0041782907 0.02545997
-0.06151308 0.008553635 0.013474315
-0.059180368 0.008628624 0.011984792
-0.050723556 0.004325387 0.02253824
-0.013976224 0.10128777 0.0973476
-0.012517281 0.087636806 0.10094395
-0.004062306 0.08790864 0.0955453
-0.0073332414 0.10150136 0.09310594
-0.012354214 0.07349528 0.1021277
-0.013493102 0.059406616 0.10085355
-0.002446171 0.059761766 0.09379989
-0.0024121925 0.0738149 0.095779605
-0.01589036 0.045912255 0.09717025
-0.019453757 0.033530768 0.09121946
-0.0074966587 0.03391519 0.08358468
-0.0041629784 0.046289317 0.08968212
-0.024046415 0.022737984 0.08322984
-0.029491834 0.013948658 0.07350843
-0.018444907 0.014303808 0.06645476
-0.012319094 0.023115065 0.07574174
-0.035580758 0.0075005284 0.062428817
-0.042079166 0.0036414312 0.05041676
-0.033624195 0.0039132675 0.045018114
-0.025638733 0.007820194 0.056080684
-0.048737314 0.0025196276 0.037933953
-0.05529933 0.0041782907 0.02545997
-0.050723556 0.004325387 0.02253824
-0.04209428 0.0027332082 0.033692274
-0.016674917 0.11392357 0.09147691
-0.013976224 0.10128777 0.0973476
-0.0073332414 0.10150136 0.09310594
-0.012099158 0.114070676 0.08855519
-0.012517281 0.087636806 0.10094395
-0.012354214 0.07349528 0.1021277
-0.0024121925 0.0738149 0.095779605
-0.004062306 0.08790864 0.0955453
-0.013493102 0.059406616 0.10085355
-0.01589036 0.045912255 0.09717025
-0.0041629784 0.046289317 0.08968212
-0.002446171 0.059761766 0.09379989
-0.019453757 0.033530768 0.09121946
-0.024046415 0.022737984 0.08322984
-0.012319094 0.023115065 0.07574174
-0.0074966587 0.03391519 0.08358468
-0.025333006 0.13426495 0.07389368
-0.02831915 0.12664555 0.08548847
-0.025680095 0.1258294 0.085301206
-0.06932262 0.010140589 0.015405233
-0.067139775 0.015477507 0.0024374938
-0.06668355 0.009324398 0.015218013
-0.025333006 0.13426495 0.07389368
-0.025680095 0.1258294 0.085301206
-0.023043167 0.12529352 0.08464922
-0.06668355 0.009324398 0.015218013
-0.067139775 0.015477507 0.0024374938
-0.06404662 0.008788569 0.014565981
-0.025333006 0.13426495 0.07389368
-0.023043167 0.12529352 0.08464922
-0.020509649 0.12505862 0.08355747
-0.06404662 0.008788569 0.014565981
-0.067139775 0.015477507 0.0024374938
-0.06151308 0.008553635 0.013474315
-0.025333006 0.13426495 0.07389368
-0.020509649 0.12505862 0.08355747
-0.018176902 0.12513357 0.082068026
-0.06151308 0.008553635 0.013474315
-0.067139775 0.015477507 0.0024374938
-0.059180368 0.008628624 0.011984792
-0.06932262 0.010140589 0.015405233
-0.07061821 0.007291245 0.029247694
-0.07097688 0.007038875 0.04343284
-0.070384815 0.0093933465 0.05741557
-0.06886466 0.014264093 0.07065851
-0.066474944 0.021463908 0.08265287
-0.06330747 0.030716104 0.0929375
-0.059484005 0.04166524 0.10111733
-0.055151414 0.053890377 0.1068779
-0.050476238 0.06692183 0.10999794
-0.04563807 0.08025883 0.11035748
-0.040822916 0.09338872 0.10794276
-0.036215853 0.10580702 0.1028465
-0.031993836 0.11703645 0.09526462
-0.02831915 0.12664555 0.08548847
-0.025333006 0.13426495 0.07389368
-0.067139775 0.015477507 0.0024374938
-0.059180368 0.008628624 0.011984792
-0.067139775 0.015477507 0.0024374938
-0.025333006 0.13426495 0.07389368
-0.018176902 0.12513357 0.082068026
-0.012099158 0.114070676 0.08855519
-0.0073332414 0.10150136 0.09310594
-0.004062306 0.08790864 0.0955453
-0.0024121925 0.0738149 0.095779605
-0.002446171 0.059761766 0.09379989
-0.0041629784 0.046289317 0.08968212
-0.0074966587 0.03391519 0.08358468
-0.012319094 0.023115065 0.07574174
-0.018444907 0.014303808 0.06645476
-0.025638733 0.007820194 0.056080684
-0.033624195 0.0039132675 0.045018114
-0.04209428 0.0027332082 0.033692274
-0.050723556 0.004325387 0.02253824
3 1 3 0
3 4 6 7
3 8 10 11
3 12 14 15
3 17 19 16
3 20 22 23
3 24 26 27
3 28 30 31
3 32 34 35
3 37 39 36
3 40 42 43
3 45 47 44
3 48 50 51
3 53 55 52
3 57 59 56
3 61 63 60
3 65 67 64
3 69 71 68
3 72 74 75
3 77 79 76
3 81 83 80
3 84 86 87
3 89 91 88
3 93 95 92
3 96 98 99
3 101 103 100
3 105 107 104
3 109 111 108
3 112 114 115
3 116 118 119
3 120 122 123
3 124 126 127
3 129 131 128
3 132 134 135
3 137 139 136
3 140 142 143
3 144 146 147
3 148 150 151
3 153 155 152
3 156 158 159
3 160 162 163
3 165 167 164
3 169 171 168
3 172 174 175
3 177 179 176
3 181 183 180
3 185 187 184
3 189 191 188
3 192 194 195
3 197 199 196
3 200 202 203
3 205 207 204
3 208 210 211
3 212 214 215
3 217 219 216
3 221 223 220
3 224 225 226
3 227 228 229
3 230 231 232
3 233 234 235
3 236 237 238
3 239 240 241
3 242 243 244
3 245 246 247
3 249 257 261
3 276 278 266
3 1 2 3
3 4 5 6
3 8 9 10
3 12 13 14
3 17 18 19
3 20 21 22
3 24 25 26
3 28 29 30
3 32 33 34
3 37 38 39
3 40 41 42
3 45 46 47
3 48 49 50
3 53 54 55
3 57 58 59
3 61 62 63
3 65 66 67
3 69 70 71
3 72 73 74
3 77 78 79
3 81 82 83
3 84 85 86
3 89 90 91
3 93 94 95
3 96 97 98
3 101 102 103
3 105 106 107
3 109 110 111
3 112 113 114
3 116 117 118
3 120 121 122
3 124 125 126
3 129 130 131
3 132 133 134
3 137 138 139
3 140 141 142
3 144 145 146
3 148 149 150
3 153 154 155
3 156 157 158
3 160 161 162
3 165 166 167
3 169 170 171
3 172 173 174
3 177 178 179
3 181 182 183
3 185 186 187
3 189 190 191
3 192 193 194
3 197 198 199
3 200 201 202
3 205 206 207
3 208 209 210
3 212 213 214
3 217 218 219
3 221 222 223
3 264 248 249
3 249 250 251
3 251 252 249
3 252 253 249
3 253 254 255
3 255 256 253
3 256 257 253
3 257 258 261
3 258 259 261
3 259 260 261
3 261 262 263
3 263 264 249
3 261 263 249
3 249 253 257
3 281 265 280
3 265 266 280
3 266 267 268
3 268 269 266
3 269 270 266
3 270 271 272
3 272 273 274
3 274 275 276
3 276 277 278
3 278 279 266
3 279 280 266
3 270 272 266
3 272 274 266
3 274 276 266
